<svg width="100" height="81" viewBox="0 0 100 81" fill="none" xmlns="http://www.w3.org/2000/svg">
<path d="M39.344 80.7932C38.354 80.7932 37.354 80.4412 36.457 79.7252C36.416 79.6932 36.378 79.6592 36.342 79.6232L35.729 79.0152C35.682 78.9682 35.638 78.9172 35.597 78.8642L0.472 32.5742C0.167 32.2272 0 31.7972 0 31.3492C0 30.6232 0.43 30.1392 0.561 30.0072C1.075 29.4922 1.789 29.3202 2.462 29.5452C2.745 29.6392 2.958 29.7832 3.098 29.8992L38.777 55.8942L96.027 0.770239C96.803 -0.0177612 98.447 -0.0447621 99.276 0.796238C99.999 1.51024 99.999 2.57224 99.999 3.02524C99.999 3.34224 99.896 3.65024 99.704 3.90324L43.042 78.8602C42.023 80.1382 40.693 80.7932 39.344 80.7932ZM38.33 77.4922C39.501 78.3772 40.405 77.4982 40.744 77.0752L93.604 7.14524L39.917 58.8402C39.408 59.3302 38.621 59.3842 38.05 58.9682L6.978 36.3302L37.856 77.0222L38.33 77.4922ZM1.161 32.0692C1.168 32.0762 1.175 32.0832 1.182 32.0902C1.175 32.0832 1.167 32.0762 1.161 32.0692ZM98.544 3.02424H98.553H98.544Z" fill="#231F20"/>
</svg>
